<svg width="24" height="26" viewBox="0 0 24 26" fill="none" xmlns="http://www.w3.org/2000/svg">
<path d="M23.1665 4.97299C23.1607 4.93625 23.1579 4.89974 23.1466 4.86626C23.1352 4.81952 23.1181 4.77953 23.0951 4.73628C23.0808 4.70628 23.0637 4.67629 23.0437 4.64955C23.018 4.61281 22.9895 4.58282 22.958 4.55282C22.9323 4.52957 22.9066 4.50957 22.8781 4.48957C22.8438 4.46632 22.8067 4.45284 22.7667 4.43958C22.7467 4.43284 22.7296 4.41633 22.7067 4.41284C22.6923 4.40959 22.6782 4.4161 22.661 4.4161C22.6439 4.4161 22.6325 4.4061 22.6154 4.4061L5.57263 4.40633L5.05536 0.812921C5.04958 0.782925 5.03543 0.756185 5.02686 0.729679C5.01828 0.696429 5.00971 0.662945 4.99536 0.632949C4.97543 0.5897 4.95251 0.549708 4.92679 0.512969C4.90686 0.486228 4.88972 0.462976 4.86679 0.439722C4.8353 0.406471 4.80101 0.382986 4.76394 0.35973C4.73823 0.342989 4.71252 0.329735 4.68401 0.316481C4.64395 0.299739 4.60408 0.293229 4.56123 0.286485C4.5413 0.28323 4.52415 0.273232 4.50402 0.273232L0.880443 0.272766C0.571884 0.272766 0.320312 0.566212 0.320312 0.926184C0.320312 1.28616 0.568873 1.5796 0.880443 1.5796H4.03242L6.107 15.9932C5.19825 16.2532 4.54689 17.19 4.54689 18.3066V18.4198C4.59253 19.7099 5.49569 20.72 6.60156 20.72L20.4663 20.7C20.7749 20.7 21.0264 20.4065 21.0236 20.0466C21.0236 19.6866 20.7721 19.3964 20.4635 19.3964L6.59876 19.4164C6.09306 19.4164 5.68143 18.9565 5.66153 18.3931V18.3099C5.66153 17.7432 6.03009 17.2798 6.51584 17.2266L10.7336 16.7866C10.7479 16.7866 10.7621 16.7866 10.7764 16.7834L21.2351 15.6965C21.255 15.6933 21.2721 15.6833 21.2923 15.6765C21.3351 15.6665 21.378 15.6533 21.4151 15.6333C21.4408 15.62 21.4637 15.6033 21.4864 15.5833C21.5207 15.5566 21.5492 15.5301 21.5779 15.4966C21.5978 15.4733 21.615 15.4498 21.6321 15.4198C21.6551 15.3831 21.6722 15.3431 21.6893 15.2999C21.7007 15.2666 21.7123 15.2366 21.7208 15.1999C21.7236 15.1831 21.7322 15.1699 21.7352 15.1499L23.1697 5.17272C23.1725 5.15597 23.1669 5.14272 23.1697 5.12598C23.1721 5.09947 23.1807 5.08273 23.1807 5.05948C23.1807 5.02948 23.1693 5.00274 23.1663 4.97275L23.1665 4.97299ZM6.03294 7.61309L5.75866 5.70963H8.61621L8.89049 7.61309H6.03294ZM6.2215 8.91642H9.07905L9.40475 11.1798H6.5472L6.2215 8.91642ZM7.21593 15.8369L6.73296 12.4835H9.59051L10.0306 15.5435L7.21593 15.8369ZM13.3025 15.2035L11.148 15.427L10.725 12.4835H13.3025L13.3025 15.2035ZM13.3025 11.1801H10.5365L10.2108 8.91677H13.3027L13.3025 11.1801ZM13.3025 7.61321H10.025L9.75073 5.71326H13.3027L13.3025 7.61321ZM16.6516 14.8534L14.42 15.0868V12.4835H16.9917L16.6516 14.8534ZM17.1802 11.18H14.4197V8.91659H17.5059L17.1802 11.18ZM14.4199 7.61303V5.70957H17.9661L17.6919 7.61303H14.4199ZM20.7065 14.4329L17.8003 14.7331L18.1233 12.483H20.9836L20.7065 14.4329ZM21.1751 11.1797H18.3118L18.6375 8.91636H21.4979L21.1751 11.1797ZM21.6866 7.61279H18.8262L19.1005 5.70933H21.9609L21.6866 7.61279Z" fill="#23300C"/>
<path d="M9.14728 21.4469C8.13571 21.4469 7.31268 22.407 7.31268 23.5871C7.31268 24.7671 8.13571 25.7272 9.14728 25.7272C10.1589 25.7272 10.9819 24.7671 10.9819 23.5871C10.9819 22.407 10.1589 21.4469 9.14728 21.4469ZM9.14728 24.4272C8.75002 24.4272 8.43009 24.0505 8.43009 23.5905C8.43009 23.1271 8.753 22.7539 9.14728 22.7539C9.54157 22.7539 9.86448 23.1306 9.86448 23.5905C9.86448 24.0505 9.54456 24.4272 9.14728 24.4272Z" fill="#23300C"/>
<path d="M17.1399 21.4469C16.1283 21.4469 15.3053 22.407 15.3053 23.5871C15.3053 24.7671 16.1283 25.7272 17.1399 25.7272C18.1515 25.7272 18.9745 24.7671 18.9745 23.5871C18.9743 22.407 18.1515 21.4469 17.1399 21.4469ZM17.1399 24.4272C16.7426 24.4272 16.4227 24.0505 16.4227 23.5905C16.4227 23.1271 16.7456 22.7539 17.1399 22.7539C17.5372 22.7539 17.8571 23.1306 17.8571 23.5905C17.8571 24.0505 17.5342 24.4272 17.1399 24.4272Z" fill="#23300C"/>
</svg>
