<svg width="89" height="32" viewBox="0 0 89 32" fill="none" xmlns="http://www.w3.org/2000/svg">
<path d="M25.644 10.746C25.7707 11.506 25.8593 12.3293 25.91 13.216C25.986 14.1027 25.986 15.1793 25.91 16.446C25.834 17.6873 25.6567 19.22 25.378 21.044C24.998 23.5013 23.9973 25.566 22.376 27.238C20.7547 28.8847 18.7153 29.9613 16.258 30.468C15.574 30.62 14.776 30.734 13.864 30.81C12.952 30.8607 12.04 30.9113 11.128 30.962C10.2413 30.9873 9.44333 31.0253 8.734 31.076C8.10067 31.2027 7.34067 31.2913 6.454 31.342C5.56733 31.3927 4.73133 31.38 3.946 31.304C3.16067 31.228 2.59067 31.0887 2.236 30.886C2.43867 30.5313 2.60333 29.9993 2.73 29.29C2.85667 28.5553 2.958 27.7573 3.034 26.896C3.11 26.0347 3.13533 25.2113 3.11 24.426L2.996 11.544C2.996 10.5053 2.98333 9.55533 2.958 8.694C2.958 7.83267 2.93267 7.16133 2.882 6.68C2.83133 6.148 2.62867 5.67933 2.274 5.274C1.94467 4.86867 1.704 4.46333 1.552 4.058C1.14667 2.94333 0.969333 1.854 1.02 0.789999C1.14667 0.815332 1.42533 0.853332 1.856 0.903998C2.312 0.929332 2.83133 0.967333 3.414 1.018C4.04733 1.04333 5.03533 1.08133 6.378 1.132C7.746 1.18267 9.13933 1.23333 10.558 1.284C10.558 1.284 10.7607 1.29666 11.166 1.322C11.5967 1.322 12.1287 1.34733 12.762 1.398C13.3953 1.44867 14.054 1.52467 14.738 1.626C15.422 1.702 16.0173 1.80333 16.524 1.93C18.1707 2.36067 19.5513 2.956 20.666 3.716C21.806 4.45067 22.718 5.24867 23.402 6.11C24.1113 6.97133 24.6433 7.82 24.998 8.656C25.3527 9.46667 25.568 10.1633 25.644 10.746ZM12.382 23.78C13.4207 23.5267 14.396 23.0327 15.308 22.298C16.2453 21.538 16.98 20.5247 17.512 19.258C18.0693 17.966 18.272 16.3953 18.12 14.546C17.9427 12.1393 17.3093 10.4673 16.22 9.53C15.156 8.59267 13.7627 8.11133 12.04 8.086C11.5587 8.06067 11.1787 8.37733 10.9 9.036C10.6213 9.69467 10.4313 10.7587 10.33 12.228C10.2793 13.1907 10.2413 13.9127 10.216 14.394C10.1907 14.85 10.178 15.23 10.178 15.534C10.2033 15.838 10.2033 16.2307 10.178 16.712C10.178 16.712 10.178 16.94 10.178 17.396C10.2033 17.852 10.2413 18.422 10.292 19.106C10.3427 19.7647 10.406 20.4487 10.482 21.158C10.558 21.842 10.6467 22.4247 10.748 22.906C10.8747 23.438 11.1153 23.742 11.47 23.818C11.8247 23.8687 12.1287 23.856 12.382 23.78ZM39.9056 8.998C40.4122 8.87133 40.8809 8.998 41.3116 9.378C41.7422 9.758 42.1222 10.2773 42.4516 10.936C42.8062 11.5693 43.0976 12.228 43.3256 12.912C43.5536 13.5707 43.7309 14.128 43.8576 14.584C43.9842 15.04 44.0476 15.268 44.0476 15.268C44.0476 15.268 43.7436 15.3313 43.1356 15.458C42.5529 15.5593 41.8182 15.7747 40.9316 16.104C40.0702 16.408 39.2089 16.8767 38.3476 17.51C37.8409 17.89 37.3596 18.346 36.9036 18.878C36.4476 19.41 36.0549 20.094 35.7256 20.93C35.3962 21.7407 35.1556 22.8173 35.0036 24.16C34.9276 24.844 34.9149 25.5533 34.9656 26.288C35.0162 27.0227 35.0416 27.6433 35.0416 28.15C35.0669 28.606 35.1302 28.9353 35.2316 29.138C35.3582 29.3153 35.4596 29.4673 35.5356 29.594C35.2062 29.898 34.5982 30.24 33.7116 30.62C32.8502 30.9747 31.9002 31.152 30.8616 31.152C29.8482 31.152 29.1009 30.8227 28.6196 30.164C28.1382 29.5053 27.8976 28.5933 27.8976 27.428C27.8976 27.1493 27.8849 26.5413 27.8596 25.604C27.8596 24.6413 27.8469 23.4887 27.8216 22.146C27.8216 20.8033 27.8089 19.41 27.7836 17.966C27.7836 16.522 27.7709 15.1793 27.7456 13.938C27.7456 12.6713 27.7329 11.6453 27.7076 10.86C27.7076 10.0747 27.7076 9.682 27.7076 9.682C27.9609 9.63133 28.3916 9.59333 28.9996 9.568C29.6329 9.54267 30.3169 9.568 31.0516 9.644C31.7862 9.72 32.4702 9.89733 33.1036 10.176C33.4076 10.3027 33.8129 10.4293 34.3196 10.556C34.8516 10.6573 35.3582 10.708 35.8396 10.708C36.3462 10.708 36.7136 10.632 36.9416 10.48C37.4229 10.1253 37.9042 9.82133 38.3856 9.568C38.8922 9.31467 39.3989 9.12467 39.9056 8.998ZM49.6336 8.39C48.7722 8.41533 47.9996 8.17467 47.3156 7.668C46.6569 7.16133 46.1502 6.54067 45.7956 5.806C45.4662 5.046 45.3396 4.324 45.4156 3.64C45.5422 2.60133 46.0109 1.86667 46.8216 1.436C47.6322 1.00533 48.4809 0.777332 49.3676 0.751998C50.6342 0.701332 51.6222 1.03067 52.3316 1.74C53.0409 2.44933 53.3956 3.26 53.3956 4.172C53.3956 4.78 53.2562 5.40067 52.9776 6.034C52.7242 6.66733 52.3189 7.212 51.7616 7.668C51.2042 8.09867 50.4949 8.33933 49.6336 8.39ZM53.6616 27.162C53.6869 27.618 53.8262 28.0107 54.0796 28.34C54.3582 28.644 54.6876 28.9353 55.0676 29.214C54.8902 29.442 54.6622 29.6827 54.3836 29.936C54.1049 30.1893 53.6869 30.43 53.1296 30.658C52.5976 30.8607 51.8249 31.0253 50.8116 31.152C50.4822 31.1773 50.0642 31.1393 49.5576 31.038C49.0509 30.962 48.5442 30.7213 48.0376 30.316C47.5562 29.8853 47.1636 29.214 46.8596 28.302C46.5556 27.3647 46.4289 26.0853 46.4796 24.464C46.5049 24.1853 46.5049 23.6407 46.4796 22.83C46.4796 22.0193 46.4669 21.0567 46.4416 19.942C46.4416 18.8273 46.4289 17.6747 46.4036 16.484C46.4036 15.2933 46.3909 14.1913 46.3656 13.178C46.3656 12.1393 46.3529 11.3033 46.3276 10.67C46.3276 10.0113 46.3276 9.682 46.3276 9.682C46.5556 9.65667 46.9356 9.63133 47.4676 9.606C48.0249 9.55533 48.6329 9.55533 49.2916 9.606C49.9502 9.65667 50.5836 9.78333 51.1916 9.986C51.8249 10.1633 52.3569 10.4547 52.7876 10.86C53.2436 11.2653 53.5096 11.81 53.5856 12.494C53.7122 13.4567 53.7629 14.7487 53.7376 16.37C53.7122 17.966 53.6742 19.714 53.6236 21.614C53.5729 23.4887 53.5856 25.338 53.6616 27.162ZM57.4221 27.884C57.4221 27.6813 57.4221 27.1367 57.4221 26.25C57.4221 25.338 57.4221 24.2107 57.4221 22.868C57.4221 21.5253 57.4094 20.056 57.3841 18.46C57.3841 16.8387 57.3841 15.2047 57.3841 13.558C57.3841 11.9113 57.3714 10.3533 57.3461 8.884C57.3461 7.38933 57.3334 6.09733 57.3081 5.008C57.2828 3.96933 57.1941 3.108 57.0421 2.424C56.8901 1.71467 56.8014 1.284 56.7761 1.132C57.0801 1.08133 57.5361 1.06866 58.1441 1.094C58.7521 1.094 59.4234 1.17 60.1581 1.322C60.9181 1.44867 61.6401 1.664 62.3241 1.968C63.0081 2.24667 63.5781 2.652 64.0341 3.184C64.4901 3.69067 64.7308 4.33667 64.7561 5.122C64.7814 5.60333 64.7941 6.452 64.7941 7.668C64.8194 8.85867 64.8321 10.2647 64.8321 11.886C64.8574 13.482 64.8828 15.1287 64.9081 16.826C64.9334 18.498 64.9461 20.0813 64.9461 21.576C64.9714 23.0707 64.9841 24.3247 64.9841 25.338C65.0094 26.326 65.0221 26.9087 65.0221 27.086C65.0221 27.618 65.1614 28.1373 65.4401 28.644C65.7441 29.1253 66.0608 29.4293 66.3901 29.556C66.2381 29.7587 65.8961 30.0247 65.3641 30.354C64.8321 30.6833 64.2114 30.9873 63.5021 31.266C62.8181 31.5447 62.1214 31.722 61.4121 31.798C60.8294 31.8487 60.2214 31.7093 59.5881 31.38C58.9801 31.076 58.4608 30.62 58.0301 30.012C57.6248 29.404 57.4221 28.6947 57.4221 27.884ZM87.2524 21.462C87.8857 21.8927 88.2911 22.5133 88.4684 23.324C88.6711 24.1093 88.6457 24.9707 88.3924 25.908C88.1644 26.8453 87.6957 27.7447 86.9864 28.606C86.2771 29.442 85.3144 30.1387 84.0984 30.696C82.9077 31.2533 81.4637 31.5447 79.7664 31.57C78.3477 31.5953 76.9544 31.418 75.5864 31.038C74.2437 30.658 73.0151 30.0753 71.9004 29.29C70.8111 28.5047 69.9244 27.4913 69.2404 26.25C68.5564 25.0087 68.1764 23.5267 68.1004 21.804C68.0751 21.4493 68.0751 21.082 68.1004 20.702C68.1257 20.322 68.1511 19.9293 68.1764 19.524C68.1764 19.4227 68.1764 19.3213 68.1764 19.22C68.2017 19.1187 68.2271 19.0173 68.2524 18.916C68.5057 17.396 69.0251 16.0027 69.8104 14.736C70.6211 13.4693 71.6091 12.3927 72.7744 11.506C73.9397 10.6193 75.1811 9.97333 76.4984 9.568C77.8411 9.13733 79.1584 8.98533 80.4504 9.112C82.4517 9.31467 83.9971 9.84667 85.0864 10.708C86.2011 11.5693 86.9231 12.6333 87.2524 13.9C87.6071 15.1413 87.6197 16.484 87.2904 17.928C87.1131 18.6373 86.7077 19.3467 86.0744 20.056C85.4664 20.74 84.7064 21.3607 83.7944 21.918C82.8824 22.45 81.9071 22.868 80.8684 23.172C79.8551 23.4507 78.8671 23.5647 77.9044 23.514C77.4231 23.4887 77.1697 23.6407 77.1444 23.97C77.1191 24.274 77.2584 24.616 77.5624 24.996C77.8664 25.3507 78.2717 25.5913 78.7784 25.718C79.9691 25.9713 81.0837 25.984 82.1224 25.756C83.1864 25.5027 83.9971 25.1607 84.5544 24.73C85.0104 24.3753 85.4917 23.9067 85.9984 23.324C86.5051 22.716 86.9231 22.0953 87.2524 21.462ZM78.9304 17.624C79.5131 17.5733 80.0197 17.396 80.4504 17.092C80.9064 16.7627 81.1344 16.4207 81.1344 16.066C81.1597 15.5593 81.0331 15.154 80.7544 14.85C80.5011 14.5207 80.0577 14.3687 79.4244 14.394C78.7151 14.4193 78.0311 14.5207 77.3724 14.698C76.7137 14.8753 76.3211 15.2427 76.1944 15.8C76.1184 16.18 76.2324 16.5093 76.5364 16.788C76.8404 17.0667 77.2204 17.282 77.6764 17.434C78.1324 17.5607 78.5504 17.624 78.9304 17.624Z" fill="#476017"/>
</svg>
