<svg width="22" height="26" viewBox="0 0 22 26" fill="none" xmlns="http://www.w3.org/2000/svg">
<path d="M21.4571 25.7271C21.7574 25.7271 22.001 25.4518 22.001 25.1129C22.001 20.0251 19.2538 15.4435 15.2085 13.5843C16.6795 12.2031 17.618 10.1217 17.618 7.79725C17.618 3.64826 14.6289 0.272766 10.9547 0.272766C7.28077 0.272766 4.29141 3.64842 4.29141 7.79725C4.29141 10.1225 5.23049 12.2044 6.70263 13.5859C2.76289 15.4131 0.180664 19.9022 0.180664 25.1129C0.180664 25.452 0.424443 25.7271 0.724558 25.7271C1.02487 25.7271 1.26845 25.4518 1.26845 25.1129C1.26845 20.1037 3.89404 15.8395 7.81859 14.4344C8.75407 15.0001 9.82137 15.3222 10.9547 15.3222C12.0881 15.3222 13.1555 15.0004 14.0908 14.4342C18.1158 15.8719 20.9129 20.2333 20.9129 25.1127C20.9129 25.4523 21.1565 25.7271 21.457 25.7271L21.4571 25.7271ZM5.3792 7.79775C5.3792 4.3259 7.88037 1.50175 10.9546 1.50175C14.0291 1.50175 16.53 4.32595 16.53 7.79775C16.53 11.2694 14.0291 14.0937 10.9546 14.0937C7.88032 14.0937 5.3792 11.2695 5.3792 7.79775Z" fill="#23300C"/>
</svg>
