<svg width="23" height="26" viewBox="0 0 23 26" fill="none" xmlns="http://www.w3.org/2000/svg">
<path d="M8.75581 0.272766C4.20679 0.272766 0.5 4.59691 0.5 9.90353C0.5 15.2102 4.20679 19.5343 8.75581 19.5343C10.7128 19.5343 12.5079 18.7296 13.925 17.3954L20.8081 25.4249C21.1534 25.8278 21.7157 25.828 22.0613 25.4249C22.4066 25.0221 22.4068 24.3661 22.0613 23.963L15.1876 15.9446C16.3299 14.292 17.0119 12.1849 17.0119 9.90372C17.0119 4.59709 13.3051 0.27295 8.75607 0.27295L8.75581 0.272766ZM8.75581 2.33662C12.3487 2.33662 15.2425 5.71237 15.2425 9.90366C15.2425 14.0949 12.3487 17.4707 8.75581 17.4707C5.16295 17.4707 2.2691 14.0949 2.2691 9.90366C2.2691 5.71218 5.1629 2.33662 8.75581 2.33662Z" fill="#23300C"/>
</svg>
